# xmcd
# 
# Track frame offsets:
#     150
#     12695
#     25922
#     40122
#     56275
#     72070
#     88815
#     103462
#     123054
#     137482
#     150682
#     162672
# 
# Disc length: 2372
# 
# Revision: 1
# Processed by: cddbd v1.5.2PL0 Copyright (c) Steve Scherf et al.
# Submitted via: BonkEnc v1.0
# 
DISCID=9d09420c
DTITLE=Chitãozinho and Xororó - Fotografia
DYEAR=1984
DGENRE=Sertanejo
TTITLE0=Pago Dobrado
TTITLE1=Fotografia
TTITLE2=Metade de Alguém
TTITLE3=Alma Ferida
TTITLE4=Pés descalços
TTITLE5=Ela Chora Chora
TTITLE6=Vem Provar de Mim
TTITLE7=Estrada
TTITLE8=Canção de Amor
TTITLE9=Gosto Amargo
TTITLE10=Só Trocando Coração
TTITLE11=Filho de Maria
EXTD=
EXTT0=
EXTT1=
EXTT2=
EXTT3=
EXTT4=
EXTT5=
EXTT6=
EXTT7=
EXTT8=
EXTT9=
EXTT10=
EXTT11=
PLAYORDER=
